<svg width="21" height="21" viewBox="0 0 21 21" fill="none" xmlns="http://www.w3.org/2000/svg">
<path d="M17.0625 2.625H3.9375C3.5894 2.625 3.25556 2.76328 3.00942 3.00942C2.76328 3.25556 2.625 3.5894 2.625 3.9375V17.0625C2.625 17.4106 2.76328 17.7444 3.00942 17.9906C3.25556 18.2367 3.5894 18.375 3.9375 18.375H17.0625C17.4106 18.375 17.7444 18.2367 17.9906 17.9906C18.2367 17.7444 18.375 17.4106 18.375 17.0625V3.9375C18.375 3.5894 18.2367 3.25556 17.9906 3.00942C17.7444 2.76328 17.4106 2.625 17.0625 2.625ZM3.9375 17.0625V3.9375H17.0625V17.0625H3.9375Z" fill="#3B3F41"/>
<path d="M9.1875 14.1094L5.90625 10.8544L6.94969 9.84375L9.1875 12.0422L14.0503 7.21875L15.0938 8.25563L9.1875 14.1094Z" fill="#3B3F41"/>
</svg>
