<svg width="18" height="18" viewBox="0 0 18 18" fill="none" xmlns="http://www.w3.org/2000/svg">
<path d="M15.9617 6.43851H15.5294V4.35303C15.5294 4.33993 15.5274 4.32693 15.5257 4.31364C15.525 4.23084 15.4986 4.14949 15.4419 4.08514L11.9715 0.120648C11.9704 0.11963 11.9693 0.119269 11.9687 0.118251C11.948 0.0951393 11.9239 0.0758356 11.8983 0.0592897C11.8908 0.0541355 11.8832 0.0499005 11.8753 0.0455342C11.8532 0.0335515 11.8297 0.0234729 11.8056 0.0162177C11.7991 0.0145105 11.7932 0.0118185 11.7867 0.0100458C11.7605 0.00387386 11.7332 0 11.7057 0H3.17648C2.78703 0 2.47062 0.31677 2.47062 0.705895V6.43831H2.03845C1.48131 6.43831 1.02954 6.88991 1.02954 7.44716V12.6936C1.02954 13.2506 1.48131 13.7026 2.03845 13.7026H2.47062V17.2941C2.47062 17.6833 2.78703 18 3.17648 18H14.8235C15.2127 18 15.5294 17.6833 15.5294 17.2941V13.7027H15.9616C16.5186 13.7027 16.9704 13.2508 16.9704 12.6938V7.44736C16.9705 6.89011 16.5186 6.43851 15.9617 6.43851ZM3.17648 0.706059H11.3527V4.31748C11.3527 4.51248 11.5109 4.67042 11.7057 4.67042H14.8236V6.43864H3.17648V0.706059ZM12.0663 11.0256C12.3238 11.0256 12.6096 10.9698 12.7776 10.9022L12.9062 11.5687C12.7496 11.6467 12.397 11.7311 11.9379 11.7311C10.633 11.7311 9.96148 10.9193 9.96148 9.84439C9.96148 8.55662 10.8797 7.83999 12.0219 7.83999C12.464 7.83999 12.8001 7.92985 12.9513 8.00805L12.7778 8.68564C12.6042 8.61257 12.3637 8.54569 12.0611 8.54569C11.3834 8.54569 10.8575 8.95422 10.8575 9.79409C10.8573 10.5493 11.3052 11.0256 12.0663 11.0256ZM9.57458 9.74931C9.57458 10.9865 8.8243 11.7367 7.72157 11.7367C6.60166 11.7367 5.94662 10.891 5.94662 9.81635C5.94662 8.68548 6.6687 7.83983 7.78309 7.83983C8.94239 7.83983 9.57458 8.7079 9.57458 9.74931ZM2.22321 11.6585V7.95194C2.5368 7.90165 2.94543 7.87397 3.37651 7.87397C4.09317 7.87397 4.55774 8.00253 4.92129 8.27698C5.31344 8.56795 5.55999 9.03275 5.55999 9.69885C5.55999 10.4209 5.29679 10.9195 4.93278 11.2273C4.53519 11.5575 3.93057 11.7145 3.19135 11.7145C2.74944 11.7143 2.43588 11.6862 2.22321 11.6585ZM14.8236 17.103H3.17648V13.7027H14.8235V17.103H14.8236ZM15.4707 11.675L15.1289 10.992C14.989 10.729 14.8994 10.5327 14.7931 10.3145H14.7818C14.7034 10.533 14.6085 10.729 14.4909 10.992L14.1774 11.675H13.2031L14.2948 9.76569L13.2425 7.90145H14.2225L14.5527 8.59034C14.6647 8.81946 14.7484 9.00445 14.8381 9.21712H14.8491C14.9387 8.97641 15.0117 8.80852 15.1066 8.59034L15.4257 7.90145H16.4002L15.3363 9.74327L16.4559 11.675H15.4707Z" fill="#5F83C6"/>
<path d="M4.65289 9.72658C4.65831 8.94297 4.19939 8.5285 3.46612 8.5285C3.27548 8.5285 3.15253 8.54538 3.07965 8.56222V11.031C3.15273 11.0477 3.27026 11.0477 3.37666 11.0477C4.14926 11.0536 4.65289 10.6283 4.65289 9.72658Z" fill="#5F83C6"/>
<path d="M6.84833 9.79932C6.84833 10.5385 7.1955 11.059 7.76653 11.059C8.34324 11.059 8.67318 10.5107 8.67318 9.77722C8.67318 9.09959 8.34866 8.51733 7.76049 8.51733C7.18394 8.5175 6.84833 9.06621 6.84833 9.79932Z" fill="#5F83C6"/>
</svg>
