<svg width="22" height="22" viewBox="0 0 22 22" fill="none" xmlns="http://www.w3.org/2000/svg">
<path d="M15.125 11H16.5V5.5H11V6.875H15.125V11Z" fill="#585E61"/>
<path d="M5.5 16.5H11V15.125H6.875V11H5.5V16.5Z" fill="#585E61"/>
<path d="M17.875 19.25H4.125C3.76044 19.2496 3.41091 19.1047 3.15313 18.8469C2.89535 18.5891 2.75036 18.2396 2.75 17.875V4.125C2.75036 3.76044 2.89535 3.41091 3.15313 3.15313C3.41091 2.89535 3.76044 2.75036 4.125 2.75H17.875C18.2396 2.75036 18.5891 2.89535 18.8469 3.15313C19.1047 3.41091 19.2496 3.76044 19.25 4.125V17.875C19.2496 18.2396 19.1047 18.5891 18.8469 18.8469C18.5891 19.1047 18.2396 19.2496 17.875 19.25ZM4.125 4.125V17.875H17.8757L17.875 4.125H4.125Z" fill="#585E61"/>
</svg>
