<svg width="144" height="144" viewBox="0 0 144 144" fill="none" xmlns="http://www.w3.org/2000/svg">
<g clip-path="url(#clip0)">
<path d="M61 7C61 4.78616 62.7257 3 64.8646 3C67.0035 3 68.7292 4.78616 68.7292 7" stroke="#BBC0C4" stroke-width="0.75" stroke-miterlimit="10"/>
<path d="M56.6076 4.62891C56.6076 2.41507 58.3333 0.628906 60.4722 0.628906C62.6111 0.628906 64.3368 2.41507 64.3368 4.62891" stroke="#CF185E" stroke-width="1.22" stroke-miterlimit="10" stroke-linecap="round" stroke-linejoin="round"/>
</g>
<g clip-path="url(#clip1)">
<path d="M23.8957 15.3125H17.28V21.9167H23.8957V15.3125Z" stroke="#BBC0C4" stroke-width="0.75" stroke-miterlimit="10"/>
<path d="M19.1374 12.5208H12.5217V19.125H19.1374V12.5208Z" stroke="#CF185E" stroke-width="1.22" stroke-miterlimit="10" stroke-linecap="round" stroke-linejoin="round"/>
</g>
<path d="M118.732 26.8049L120.049 21.8781L115.122 23.1951L110.171 24.5122L113.805 28.1463L117.415 31.7561L118.732 26.8049Z" stroke="#BBC0C4" stroke-width="0.75" stroke-miterlimit="10"/>
<path d="M113.171 23.561L114.488 18.6097L109.561 19.9268L104.61 21.2683L108.219 24.878L111.854 28.4878L113.171 23.561Z" stroke="#CF185E" stroke-width="1.22" stroke-miterlimit="10" stroke-linecap="round" stroke-linejoin="round"/>
<path d="M130.992 62.254C138.079 101.713 90.672 76.5026 75.3743 79.6207C64.3973 81.8558 53.4203 102.544 38.4941 103.11C22.8111 103.706 10.8468 88.5438 8.93761 74.8953C6.04801 54.2691 34.7995 13.2754 60.0354 17.2661C79.1755 20.291 76.2618 47.4604 94.1567 53.1378C105.409 56.6766 127.136 40.7517 130.992 62.254Z" fill="#CF185E"/>
<path opacity="0.9" d="M130.992 62.254C138.079 101.713 90.672 76.5026 75.3743 79.6207C64.3973 81.8558 53.4203 102.544 38.4941 103.11C22.8111 103.706 10.8468 88.5438 8.93761 74.8953C6.04801 54.2691 34.7995 13.2754 60.0354 17.2661C79.1755 20.291 76.2618 47.4604 94.1567 53.1378C105.409 56.6766 127.136 40.7517 130.992 62.254Z" fill="white"/>
<path d="M69 137.985C32.1636 137.985 2.30185 136.237 2.30185 134.08C2.30185 131.924 32.1636 130.176 69 130.176C105.836 130.176 135.698 131.924 135.698 134.08C135.698 136.237 105.836 137.985 69 137.985Z" fill="#F5F5F5"/>
<path d="M132.696 84.357L133.044 84.3979L132.425 89.708L132.076 89.6671L132.696 84.357Z" fill="#CF185E"/>
<path d="M131.845 91.6421L132.194 91.6829L131.881 94.3619L131.533 94.3211L131.845 91.6421Z" fill="#CF185E"/>
<path d="M108.701 73.5294L109.114 72.367C109.398 71.5681 109.944 70.8895 110.662 70.4421C111.381 69.9947 112.23 69.8051 113.07 69.9043L129.51 71.8324C130.494 71.9482 131.393 72.4515 132.008 73.2316C132.623 74.0117 132.903 75.0047 132.788 75.9922L128.11 116.106C128.071 116.442 127.966 116.766 127.802 117.061C127.638 117.356 127.418 117.616 127.154 117.826C126.889 118.035 126.586 118.19 126.262 118.282C125.938 118.374 125.599 118.402 125.265 118.362L66.4407 111.464C66.1054 111.426 65.781 111.321 65.486 111.157C65.191 110.993 64.9312 110.772 64.7216 110.507C64.5119 110.242 64.3565 109.938 64.2642 109.613C64.172 109.288 64.1447 108.947 64.184 108.611L68.2432 73.933C68.3217 73.256 68.6651 72.6381 69.198 72.2151C69.7309 71.792 70.4095 71.5986 71.0847 71.6772L105.244 75.6852C105.978 75.7704 106.72 75.6037 107.348 75.2122C107.975 74.8207 108.453 74.2276 108.701 73.5294Z" fill="#CF185E"/>
<path d="M107.06 56.0852L125.645 59.7987L120.542 85.4733L101.957 81.7598L107.06 56.0852Z" fill="#CF185E"/>
<path opacity="0.7" d="M107.06 56.0852L125.645 59.7987L120.542 85.4733L101.957 81.7598L107.06 56.0852Z" fill="white"/>
<g opacity="0.4">
<path opacity="0.4" d="M109.54 62.254L120.989 64.5443C121.255 64.5962 121.532 64.5405 121.758 64.3894C121.984 64.2383 122.141 64.004 122.196 63.7372V63.7372C122.248 63.4697 122.192 63.1926 122.042 62.966C121.891 62.7393 121.657 62.5814 121.391 62.5265L109.936 60.2466C109.669 60.1947 109.393 60.2503 109.167 60.4014C108.941 60.5525 108.783 60.7869 108.729 61.0537V61.0537C108.68 61.3205 108.738 61.5958 108.89 61.8203C109.042 62.0448 109.275 62.2005 109.54 62.254V62.254Z" fill="#CF185E"/>
<path opacity="0.4" d="M108.698 66.5068L120.146 68.8074C120.412 68.8583 120.688 68.8022 120.913 68.6512C121.138 68.5002 121.295 68.2664 121.35 68.0003V68.0003C121.401 67.7334 121.345 67.4572 121.194 67.2314C121.044 67.0055 120.81 66.8481 120.545 66.7931L109.097 64.5063C108.831 64.4554 108.555 64.5115 108.33 64.6625C108.104 64.8135 107.948 65.0473 107.893 65.3134C107.846 65.5782 107.904 65.8509 108.054 66.0737C108.204 66.2964 108.435 66.4518 108.698 66.5068V66.5068Z" fill="#CF185E"/>
<path opacity="0.4" d="M107.855 70.7528L119.303 73.0396C119.569 73.0905 119.845 73.0344 120.07 72.8834C120.295 72.7324 120.452 72.4986 120.507 72.2325V72.2325C120.558 71.9656 120.502 71.6894 120.351 71.4635C120.201 71.2377 119.968 71.0802 119.702 71.0253L108.254 68.735C107.988 68.6841 107.712 68.7402 107.487 68.8912C107.262 69.0422 107.105 69.276 107.05 69.5421V69.5421C106.998 69.8095 107.054 70.0866 107.204 70.3133C107.355 70.5399 107.589 70.6978 107.855 70.7528V70.7528Z" fill="#CF185E"/>
<path opacity="0.4" d="M107.009 75.016L118.457 77.3028C118.724 77.3547 119 77.2991 119.226 77.148C119.452 76.9969 119.61 76.7625 119.664 76.4957C119.716 76.2283 119.661 75.9512 119.51 75.7245C119.359 75.4979 119.125 75.34 118.859 75.285L107.411 72.9982C107.144 72.9463 106.868 73.0019 106.642 73.153C106.416 73.3041 106.258 73.5385 106.204 73.8053V73.8053C106.152 74.0727 106.207 74.3498 106.358 74.5765C106.509 74.8031 106.742 74.9611 107.009 75.016V75.016Z" fill="#CF185E"/>
<path opacity="0.4" d="M109.296 79.8691L117.614 81.5316C117.88 81.5825 118.156 81.5264 118.381 81.3754C118.606 81.2243 118.763 80.9905 118.818 80.7245V80.7245C118.87 80.4571 118.814 80.18 118.664 79.9533C118.513 79.7267 118.279 79.5687 118.013 79.5138L109.695 77.8513C109.429 77.8004 109.154 77.8565 108.928 78.0075C108.703 78.1585 108.546 78.3923 108.491 78.6584V78.6584C108.439 78.9258 108.495 79.2029 108.646 79.4295C108.796 79.6562 109.03 79.8141 109.296 79.8691V79.8691Z" fill="#CF185E"/>
</g>
<path d="M80.5774 51.1374L99.3535 53.7129L95.8145 79.6507L77.0384 77.0752L80.5774 51.1374Z" fill="#CF185E"/>
<path opacity="0.7" d="M80.5774 51.1374L99.3535 53.7129L95.8145 79.6507L77.0384 77.0752L80.5774 51.1374Z" fill="white"/>
<g opacity="0.4">
<path opacity="0.4" d="M83.4274 57.1492L94.9927 58.7358C95.262 58.7713 95.5344 58.6988 95.7508 58.5341C95.9672 58.3695 96.1101 58.1259 96.1485 57.8563V57.8563C96.1838 57.5862 96.1116 57.3131 95.9473 57.0962C95.7831 56.8792 95.5402 56.7359 95.2713 56.6974L83.706 55.1107C83.4367 55.0753 83.1643 55.1478 82.9479 55.3124C82.7315 55.4771 82.5886 55.7206 82.5502 55.9903V55.9903C82.5149 56.2603 82.5871 56.5335 82.7514 56.7504C82.9156 56.9674 83.1585 57.1107 83.4274 57.1492V57.1492Z" fill="#CF185E"/>
<path opacity="0.4" d="M82.8426 61.4366L94.4079 63.0232C94.6772 63.0587 94.9496 62.9862 95.166 62.8215C95.3824 62.6569 95.5253 62.4133 95.5637 62.1437V62.1437C95.5981 61.8742 95.5253 61.6019 95.3612 61.3857C95.1971 61.1696 94.9547 61.0268 94.6865 60.9882L83.1212 59.4016C82.8524 59.3661 82.5805 59.4381 82.3642 59.602C82.1479 59.766 82.0046 60.0087 81.9654 60.2777V60.2777C81.9301 60.5477 82.0023 60.8208 82.1666 61.0378C82.3308 61.2548 82.5737 61.3981 82.8426 61.4366V61.4366Z" fill="#CF185E"/>
<path opacity="0.4" d="M90.6376 66.8759L93.8231 67.314C94.0924 67.3494 94.3648 67.2769 94.5812 67.1123C94.7976 66.9476 94.9405 66.7041 94.9789 66.4344C95.0142 66.1644 94.9419 65.8913 94.7777 65.6743C94.6135 65.4573 94.3706 65.314 94.1017 65.2755L90.9128 64.8375C90.644 64.803 90.3725 64.8759 90.1569 65.0405C89.9413 65.2051 89.7989 65.4481 89.7604 65.717V65.717C89.7251 65.9871 89.7974 66.2602 89.9616 66.4771C90.1258 66.6941 90.3687 66.8374 90.6376 66.8759Z" fill="#CF185E"/>
<path opacity="0.4" d="M84.456 66.0274L87.6448 66.4655C87.9136 66.4999 88.1851 66.427 88.4007 66.2624C88.6164 66.0978 88.7588 65.8549 88.7972 65.5859V65.5859C88.8326 65.3159 88.7603 65.0427 88.5961 64.8258C88.4318 64.6088 88.1889 64.4655 87.92 64.427L84.7346 63.9924C84.4658 63.9569 84.1938 64.0289 83.9776 64.1928C83.7613 64.3568 83.618 64.5995 83.5788 64.8685V64.8685C83.5434 65.1385 83.6157 65.4117 83.7799 65.6286C83.9442 65.8456 84.1871 65.9889 84.456 66.0274V66.0274Z" fill="#CF185E"/>
<path opacity="0.4" d="M81.673 70.0147L93.2383 71.6014C93.5076 71.6368 93.78 71.5643 93.9964 71.3996C94.2128 71.235 94.3557 70.9914 94.3941 70.7218V70.7218C94.4285 70.4523 94.3557 70.1801 94.1916 69.9639C94.0275 69.7477 93.7851 69.6049 93.5169 69.5663L81.9516 67.9763C81.6823 67.9408 81.4099 68.0133 81.1935 68.178C80.9771 68.3426 80.8342 68.5862 80.7958 68.8558C80.7604 69.1259 80.8327 69.399 80.997 69.6159C81.1612 69.8329 81.4041 69.9762 81.673 70.0147V70.0147Z" fill="#CF185E"/>
<path opacity="0.4" d="M84.2461 74.7367L92.6535 75.8887C92.9217 75.9232 93.1928 75.8508 93.4083 75.6869C93.6238 75.5231 93.7666 75.2809 93.8059 75.0126V75.0126C93.8413 74.7431 93.7694 74.4704 93.6059 74.2535C93.4424 74.0367 93.2004 73.893 92.9321 73.8537L84.5247 72.7017C84.2565 72.6671 83.9854 72.7396 83.7699 72.9035C83.5544 73.0673 83.4116 73.3094 83.3723 73.5778C83.337 73.8473 83.4088 74.12 83.5723 74.3368C83.7358 74.5537 83.9778 74.6973 84.2461 74.7367V74.7367Z" fill="#CF185E"/>
</g>
<path d="M98.2948 54.9217L117.174 56.5712L114.908 82.6518L96.0283 81.0023L98.2948 54.9217Z" fill="#CF185E"/>
<path opacity="0.8" d="M98.2948 54.9217L117.174 56.5712L114.908 82.6518L96.0283 81.0023L98.2948 54.9217Z" fill="white"/>
<g opacity="0.4">
<path opacity="0.4" d="M101.436 60.7915L113.066 61.8056C113.337 61.8276 113.605 61.7419 113.813 61.5669C114.021 61.392 114.152 61.1419 114.178 60.8708C114.199 60.6001 114.113 60.3319 113.938 60.1241C113.764 59.9163 113.515 59.7856 113.245 59.7602L101.615 58.7255C101.344 58.7034 101.076 58.7891 100.868 58.9641C100.66 59.1391 100.529 59.3892 100.504 59.6602V59.6602C100.49 59.7959 100.504 59.9329 100.544 60.0634C100.583 60.1938 100.648 60.3151 100.735 60.4202C100.822 60.5253 100.928 60.6123 101.048 60.676C101.169 60.7397 101.3 60.779 101.436 60.7915V60.7915Z" fill="#CF185E"/>
<path opacity="0.4" d="M101.061 65.103L112.691 66.1378C112.962 66.1598 113.23 66.0741 113.438 65.8991C113.646 65.7242 113.777 65.4741 113.803 65.203V65.203C113.825 64.9317 113.739 64.6626 113.565 64.4541C113.39 64.2456 113.141 64.1144 112.87 64.0889L101.24 63.0542C100.969 63.0321 100.701 63.1179 100.493 63.2928C100.285 63.4678 100.154 63.7179 100.129 63.9889V63.9889C100.107 64.2602 100.192 64.5293 100.367 64.7379C100.541 64.9464 100.791 65.0776 101.061 65.103V65.103Z" fill="#CF185E"/>
<path opacity="0.4" d="M100.686 69.4145L112.316 70.4493C112.587 70.4714 112.855 70.3856 113.063 70.2106C113.271 70.0357 113.402 69.7856 113.428 69.5146C113.45 69.2432 113.364 68.9742 113.19 68.7656C113.015 68.5571 112.766 68.4259 112.495 68.4005L100.865 67.3657C100.594 67.3437 100.326 67.4294 100.118 67.6044C99.9098 67.7793 99.779 68.0294 99.7536 68.3004C99.7316 68.5718 99.8171 68.8408 99.9916 69.0494C100.166 69.2579 100.416 69.3891 100.686 69.4145V69.4145Z" fill="#CF185E"/>
<path opacity="0.4" d="M100.304 73.726L111.935 74.7608C112.205 74.7829 112.474 74.6971 112.682 74.5222C112.89 74.3472 113.02 74.0971 113.046 73.8261V73.8261C113.068 73.5548 112.982 73.2857 112.808 73.0771C112.633 72.8686 112.384 72.7374 112.114 72.712L100.483 71.6979C100.212 71.6759 99.944 71.7616 99.736 71.9366C99.528 72.1115 99.3971 72.3616 99.3718 72.6327C99.3554 72.9005 99.4435 73.1643 99.6174 73.3683C99.7914 73.5723 100.038 73.7006 100.304 73.726V73.726Z" fill="#CF185E"/>
<path opacity="0.4" d="M103.114 78.3169L111.567 79.055C111.839 79.0799 112.11 78.9955 112.32 78.8202C112.53 78.645 112.663 78.3932 112.688 78.1203V78.1203C112.71 77.8489 112.624 77.5799 112.45 77.3713C112.275 77.1628 112.026 77.0316 111.756 77.0062L103.304 76.2681C103.033 76.246 102.765 76.3317 102.557 76.5067C102.349 76.6817 102.218 76.9318 102.193 77.2028V77.2028C102.17 77.4725 102.255 77.7401 102.427 77.9484C102.599 78.1566 102.846 78.2889 103.114 78.3169V78.3169Z" fill="#CF185E"/>
</g>
<path d="M75.2899 53.6545L94.2189 54.5695L92.9616 80.7186L74.0326 79.8036L75.2899 53.6545Z" fill="#CF185E"/>
<path opacity="0.8" d="M75.2899 53.6545L94.2189 54.5695L92.9616 80.7186L74.0326 79.8036L75.2899 53.6545Z" fill="white"/>
<g opacity="0.4">
<path opacity="0.4" d="M78.6527 59.3912L90.3108 59.9568C90.5817 59.9681 90.8462 59.8721 91.047 59.6894C91.2479 59.5068 91.369 59.2522 91.3841 58.9807V58.9807C91.3954 58.7091 91.2995 58.4439 91.1174 58.2425C90.9352 58.0411 90.6813 57.9197 90.4106 57.9046L78.749 57.3389C78.4781 57.3276 78.2136 57.4237 78.0127 57.6063C77.8119 57.789 77.6908 58.0436 77.6757 58.315V58.315C77.6645 58.5872 77.7607 58.8529 77.9436 59.0544C78.1265 59.2559 78.3813 59.3769 78.6527 59.3912V59.3912Z" fill="#CF185E"/>
<path opacity="0.4" d="M78.4428 63.7165L90.1044 64.2787C90.3753 64.29 90.6398 64.1939 90.8407 64.0113C91.0415 63.8286 91.1626 63.574 91.1777 63.3026V63.3026C91.1889 63.0303 91.0927 62.7647 90.9098 62.5632C90.7269 62.3617 90.4721 62.2407 90.2007 62.2264L78.5426 61.6607C78.2711 61.6495 78.0061 61.746 77.8052 61.9294C77.6043 62.1128 77.4836 62.3682 77.4693 62.6403C77.458 62.912 77.5539 63.1771 77.736 63.3785C77.9182 63.5799 78.1721 63.7013 78.4428 63.7165V63.7165Z" fill="#CF185E"/>
<path opacity="0.4" d="M86.6816 68.4626L89.8946 68.6178C90.1655 68.6291 90.43 68.533 90.6308 68.3503C90.8316 68.1677 90.9527 67.9131 90.9679 67.6416V67.6416C90.9791 67.37 90.8833 67.1048 90.7011 66.9034C90.519 66.7021 90.2651 66.5807 89.9943 66.5655L86.7814 66.4068C86.5099 66.3956 86.2449 66.4921 86.044 66.6755C85.8431 66.8589 85.7224 67.1143 85.7081 67.3864V67.3864C85.6968 67.6581 85.7926 67.9232 85.9748 68.1246C86.157 68.326 86.4109 68.4474 86.6816 68.4626V68.4626Z" fill="#CF185E"/>
<path opacity="0.4" d="M80.4518 68.1453L83.6647 68.3005C83.9356 68.3118 84.2001 68.2157 84.4009 68.0331C84.6018 67.8504 84.7229 67.5958 84.738 67.3244V67.3244C84.7493 67.0527 84.6535 66.7875 84.4713 66.5862C84.2891 66.3848 84.0352 66.2634 83.7645 66.2482L80.5515 66.093C80.2806 66.0817 80.0161 66.1778 79.8153 66.3604C79.6144 66.5431 79.4934 66.7977 79.4782 67.0691V67.0691C79.467 67.3408 79.5628 67.6059 79.745 67.8073C79.9271 68.0087 80.181 68.1301 80.4518 68.1453V68.1453Z" fill="#CF185E"/>
<path opacity="0.4" d="M78.0266 72.3636L89.6882 72.9258C89.9591 72.9371 90.2236 72.8411 90.4244 72.6584C90.6252 72.4757 90.7463 72.2212 90.7614 71.9497V71.9497C90.7727 71.6775 90.6764 71.4118 90.4935 71.2103C90.3106 71.0089 90.0558 70.8879 89.7845 70.8736L78.1263 70.3079C77.8549 70.2966 77.5899 70.3932 77.389 70.5765C77.188 70.7599 77.0673 71.0154 77.0531 71.2875C77.0418 71.5591 77.1376 71.8243 77.3198 72.0257C77.5019 72.227 77.7558 72.3484 78.0266 72.3636Z" fill="#CF185E"/>
<path opacity="0.4" d="M81.0056 76.8407L89.4783 77.2512C89.7492 77.2625 90.0137 77.1664 90.2146 76.9837C90.4154 76.8011 90.5365 76.5465 90.5516 76.275C90.5629 76.0034 90.4671 75.7382 90.2849 75.5368C90.1027 75.3355 89.8488 75.2141 89.5781 75.1989L81.1054 74.7884C80.8344 74.7771 80.57 74.8732 80.3691 75.0559C80.1683 75.2385 80.0472 75.4931 80.0321 75.7646V75.7646C80.0208 76.0362 80.1166 76.3014 80.2988 76.5028C80.481 76.7041 80.7349 76.8255 81.0056 76.8407V76.8407Z" fill="#CF185E"/>
</g>
<path d="M103.452 74.271L103.754 73.1363C103.966 72.3509 104.459 71.671 105.138 71.2259C105.817 70.7807 106.636 70.6014 107.439 70.7218L123.878 72.6499C124.876 72.7725 125.794 73.2556 126.462 74.0087C127.129 74.7618 127.5 75.7332 127.504 76.7407L126.572 116.01C126.566 116.333 126.492 116.652 126.353 116.944C126.215 117.236 126.015 117.495 125.769 117.704C125.522 117.912 125.234 118.065 124.923 118.153C124.612 118.24 124.287 118.26 123.968 118.21L65.1438 111.312C64.4608 111.229 63.8314 110.899 63.3736 110.384C62.9157 109.869 62.6608 109.205 62.6566 108.515L63.4616 74.5677C63.4676 74.2441 63.5427 73.9255 63.6816 73.6334C63.8205 73.3412 64.0202 73.0823 64.2671 72.8739C64.5141 72.6654 64.8026 72.5124 65.1134 72.425C65.4242 72.3376 65.7501 72.3178 66.0691 72.3671L100.225 76.3716C100.926 76.4789 101.642 76.3243 102.237 75.937C102.832 75.5498 103.264 74.9569 103.452 74.271Z" fill="#CF185E"/>
<path opacity="0.3" d="M103.452 74.271L103.754 73.1363C103.966 72.3509 104.459 71.671 105.138 71.2259C105.817 70.7807 106.636 70.6014 107.439 70.7218L123.878 72.6499C124.876 72.7725 125.794 73.2556 126.462 74.0087C127.129 74.7618 127.5 75.7332 127.504 76.7407L126.572 116.01C126.566 116.333 126.492 116.652 126.353 116.944C126.215 117.236 126.015 117.495 125.769 117.704C125.522 117.912 125.234 118.065 124.923 118.153C124.612 118.24 124.287 118.26 123.968 118.21L65.1438 111.312C64.4608 111.229 63.8314 110.899 63.3736 110.384C62.9157 109.869 62.6608 109.205 62.6566 108.515L63.4616 74.5677C63.4676 74.2441 63.5427 73.9255 63.6816 73.6334C63.8205 73.3412 64.0202 73.0823 64.2671 72.8739C64.5141 72.6654 64.8026 72.5124 65.1134 72.425C65.4242 72.3376 65.7501 72.3178 66.0691 72.3671L100.225 76.3716C100.926 76.4789 101.642 76.3243 102.237 75.937C102.832 75.5498 103.264 74.9569 103.452 74.271Z" fill="black"/>
<path d="M45.952 55.3936C46.2065 56.6732 46.4783 57.9356 46.7845 59.1877C47.0906 60.4397 47.3899 61.7056 47.7236 62.9577L48.2327 64.8306L48.298 65.072C48.329 65.1755 48.3634 65.279 48.4047 65.3859C48.4927 65.6207 48.6081 65.8441 48.7487 66.0516C48.9193 66.3094 49.1377 66.5318 49.392 66.707C49.6721 66.8974 49.9946 67.0158 50.3311 67.0519C50.8405 67.089 51.3499 66.9801 51.8 66.738C52.1418 66.5514 52.4625 66.3282 52.7563 66.0723C53.288 65.6062 53.7585 65.0742 54.1564 64.4891L53.176 63.6337C52.7079 63.9987 52.2135 64.3285 51.6968 64.6202C51.4723 64.7478 51.2347 64.8507 50.9881 64.9272C50.7783 64.9961 50.5925 64.9858 50.5925 64.9513C50.5925 64.9168 50.6269 64.9513 50.6441 64.9513C50.6613 64.9513 50.6441 64.9513 50.6441 64.8927C50.6441 64.834 50.6029 64.7719 50.5788 64.6823L50.4996 64.2994L50.1006 62.4161L49.2922 58.6496C49.0308 57.3941 48.7487 56.1351 48.4769 54.8934L45.952 55.3936Z" fill="#FFC3BD"/>
<path d="M47.0941 51.4511C50.0284 53.7034 49.908 57.9494 49.908 57.9494L44.662 59.2083C44.662 59.2083 43.0486 54.9382 43.7022 53.3758C44.3834 51.7477 45.4394 50.1818 47.0941 51.4511Z" fill="#263238"/>
<path d="M52.9145 63.6854L54.8444 61.7504L55.8764 64.7788C55.8764 64.7788 54.2458 65.6584 52.6875 64.8271L52.9145 63.6854Z" fill="#FFC3BD"/>
<path d="M57.5173 61.4503L57.8716 63.8441L55.8867 64.7788L54.8444 61.7504L57.5173 61.4503Z" fill="#FFC3BD"/>
<path d="M30.0867 131.535L33.0382 131.824L36.1101 124.778L33.1586 124.488L30.0867 131.535Z" fill="#FFC3BD"/>
<path d="M11.0704 121.118L13.2892 123.205L18.0742 117.931L15.8554 115.844L11.0704 121.118Z" fill="#FFC3BD"/>
<path d="M14.304 122.205L12.639 119.197C12.6111 119.144 12.5649 119.103 12.5091 119.082C12.4534 119.062 12.3919 119.062 12.3363 119.083L9.77347 120.063C9.71016 120.089 9.65318 120.129 9.60624 120.179C9.55931 120.23 9.52347 120.289 9.50107 120.354C9.47868 120.419 9.47022 120.489 9.47626 120.557C9.48229 120.626 9.50269 120.692 9.53612 120.752C10.1347 121.787 10.4752 122.263 11.208 123.588C11.6586 124.402 12.5358 126.268 13.1585 127.382C13.7811 128.496 14.9232 127.951 14.7649 127.427C14.0529 125.074 14.187 123.767 14.3865 122.732C14.4207 122.552 14.3915 122.366 14.304 122.205Z" fill="#263238"/>
<path d="M33.4304 130.91H29.8046C29.7394 130.91 29.6761 130.932 29.6244 130.972C29.5728 131.012 29.5358 131.068 29.5191 131.131L28.7313 134.004C28.712 134.072 28.7088 134.143 28.7219 134.213C28.735 134.282 28.7641 134.347 28.8069 134.403C28.8497 134.459 28.905 134.504 28.9683 134.535C29.0317 134.566 29.1013 134.581 29.1717 134.58C30.4513 134.58 31.0568 134.58 32.6495 134.58H37.5205C38.8484 134.58 39.1236 133.238 38.5766 133.114C36.117 132.569 34.7032 131.817 33.9429 131.1C33.8019 130.974 33.6189 130.907 33.4304 130.91V130.91Z" fill="#263238"/>
<path opacity="0.2" d="M36.1067 124.781L34.5243 128.413H31.4455L33.1552 124.491L36.1067 124.781Z" fill="black"/>
<path opacity="0.2" d="M15.8554 115.848L18.0742 117.934L15.6043 120.652L13.3855 118.562L15.8554 115.848Z" fill="black"/>
<path d="M46.2065 51.0165C46.2065 51.0165 47.5344 51.5994 43.083 69.2593L30.7197 68.1866C31.3595 63.1611 31.6347 60.0499 30.1245 49.485C31.8857 49.2762 33.6597 49.1966 35.4325 49.247C37.313 49.2753 39.1891 49.4378 41.0465 49.7334C42.7871 50.0732 44.5093 50.5014 46.2065 51.0165V51.0165Z" fill="#263238"/>
<path d="M35.4325 49.147C35.4325 49.147 34.7445 49.147 33.9051 49.147C33.4063 49.9162 35.0231 53.2861 37.6891 55.4901C38.0951 54.2648 38.8409 53.1808 39.8391 52.3651L35.4325 49.147Z" fill="white"/>
<path d="M41.0465 49.6885C41.0465 49.6885 41.3596 49.7334 42.106 49.9058C42.6048 50.675 43.4476 53.9621 41.9788 55.6384C41.6089 54.3672 40.8672 53.2365 39.8494 52.3927L41.0465 49.6885Z" fill="white"/>
<path d="M36.5367 42.9557C36.7328 44.7976 36.8016 48.1295 35.4325 49.2471C35.4325 49.2471 36.8945 50.744 39.8494 52.3928C41.9995 50.9027 41.0466 49.7334 41.0466 49.7334C39.0754 49.0781 39.2578 47.5846 39.729 46.2049L36.5367 42.9557Z" fill="#FFC3BD"/>
<path d="M39.901 52.4031C39.901 52.4031 38.0882 50.4232 37.149 50.8026C36.2099 51.1821 36.9357 51.8616 37.0183 52.4997C37.1009 53.1378 36.6537 54.8348 37.9093 54.3933C39.1649 53.9518 39.901 52.4031 39.901 52.4031Z" fill="#CF185E"/>
<path d="M39.9733 52.3617C39.9733 52.3617 40.8298 50.844 41.7552 51.0475C42.6805 51.251 42.1301 51.7822 42.0476 52.3548C41.9409 53.086 42.7115 54.4933 41.5969 54.0794C40.4824 53.6655 39.9733 52.3617 39.9733 52.3617Z" fill="#CF185E"/>
<g opacity="0.2">
<path opacity="0.2" d="M40.448 52.034C40.4604 52.34 40.4015 52.6447 40.276 52.9239C40.1621 52.7456 40.0621 52.5588 39.9767 52.3651C40.1038 52.1489 40.25 51.9446 40.4136 51.7546C40.4419 51.8449 40.4536 51.9396 40.448 52.034V52.034Z" fill="black"/>
<path opacity="0.2" d="M39.2405 51.7615C39.6293 52.1065 39.8976 52.4031 39.8976 52.4031C39.7976 52.6101 39.6826 52.8096 39.5536 52.9998C39.3458 52.7908 39.2231 52.5116 39.2096 52.2168C39.1766 52.0652 39.1873 51.9073 39.2405 51.7615V51.7615Z" fill="black"/>
</g>
<path d="M39.9217 53.0239C40.1797 53.0239 40.3379 52.7445 40.3551 52.0788C40.3723 51.4131 39.8632 51.7822 39.8632 51.7822C39.8632 51.7822 39.1752 51.4373 39.299 52.234C39.3884 52.8652 39.6568 53.0239 39.9217 53.0239Z" fill="#CF185E"/>
<path opacity="0.2" d="M37.837 44.2837L39.7256 46.2049C39.6124 46.5248 39.5261 46.8536 39.4676 47.1879C38.7073 47.012 37.6065 46.2187 37.5962 45.4047C37.6085 45.0195 37.6901 44.6398 37.837 44.2837V44.2837Z" fill="black"/>
<path d="M39.4573 36.7299C39.4573 36.7299 41.5213 39.5962 41.8653 40.8689C43.2688 41.6899 43.5509 37.6508 42.8078 35.1605C40.4892 36.6195 39.4573 36.7299 39.4573 36.7299Z" fill="#263238"/>
<path d="M34.9199 40.0791C35.687 43.0213 35.9519 44.2837 37.7476 45.5151C40.4548 47.3707 43.8914 45.7841 44.0187 42.6695C44.1322 39.8687 42.8594 35.5262 39.7187 34.9157C39.0266 34.7748 38.31 34.8143 37.6374 35.0305C36.9649 35.2466 36.3589 35.6322 35.8774 36.1502C35.396 36.6683 35.0551 37.3015 34.8875 37.9894C34.7198 38.6773 34.731 39.3968 34.9199 40.0791Z" fill="#FFC3BD"/>
<path d="M33.3238 38.9029C33.3238 38.9029 34.7995 41.3001 34.999 42.3521C36.0689 43.0799 36.5195 39.8859 36.0689 37.8681C35.577 36.0711 33.3238 38.9029 33.3238 38.9029Z" fill="#263238"/>
<path d="M33.912 37.237C34.3386 37.5612 34.7892 36.3643 34.3661 35.4468C35.1814 35.4986 36.1617 35.0122 35.9519 34.2224C37.5584 34.7639 38.1535 33.1255 37.9678 31.9907C37.7442 30.6111 36.547 30.3179 35.8418 30.68C35.8418 30.0626 34.2869 28.7761 33.6953 29.7833C32.5979 29.3935 30.8297 29.5142 30.8676 30.8663C30.1417 30.887 27.9986 31.7114 28.8036 33.6257C27.8576 33.6808 27.345 34.8846 27.8713 35.7952C27.664 35.9053 27.4862 36.0638 27.3528 36.2574C27.2195 36.4509 27.1345 36.6738 27.1052 36.9072C27.0758 37.1406 27.1029 37.3777 27.1842 37.5984C27.2654 37.8191 27.3985 38.0169 27.5721 38.1752C27.1352 39.0857 28.4596 40.4413 29.1648 40.2792C29.7014 41.1035 30.5236 41.7244 31.0602 41.0207C32.0922 41.783 33.279 40.8138 33.0142 40.0688C34.1838 39.8894 35.3774 37.9337 33.912 37.237Z" fill="#263238"/>
<path d="M32.1645 34.3396C31.3939 35.6296 31.4593 37.099 32.3055 37.5991C33.1518 38.0993 34.4693 37.4784 35.2398 36.1884C36.0104 34.8984 35.9485 33.429 35.0988 32.9289C34.2491 32.4288 32.935 33.0531 32.1645 34.3396Z" fill="#CF185E"/>
<path d="M39.3197 36.385C39.3644 36.7541 40.3792 36.6575 40.6716 36.0056C41.0913 36.4471 42.0785 36.6748 42.4157 36.1953C42.9867 37.2715 44.1357 36.9887 44.4315 36.4747C44.7273 35.9608 44.9234 35.0054 44.3283 34.8157C44.6723 34.519 44.5691 33.1221 43.6678 33.298C43.2894 32.553 42.254 31.7079 41.4972 32.3667C41.0844 32.0218 39.4332 31.3044 38.7658 32.6185C38.6195 32.5182 38.4523 32.4525 38.277 32.4263C38.1016 32.4001 37.9227 32.4141 37.7535 32.4672C37.5843 32.5203 37.4293 32.6112 37.3002 32.733C37.1711 32.8548 37.0712 33.0043 37.008 33.1704C35.9381 32.891 35.4737 33.705 35.4772 34.1465C34.7169 34.3535 34.6653 35.6711 35.1332 35.9539C34.9509 36.6196 35.0472 37.3336 35.7455 37.2715C35.8797 38.1683 37.0768 38.3062 37.3589 37.8199C38.1363 38.32 39.7221 37.4508 39.3197 36.385Z" fill="#263238"/>
<path d="M41.136 33.8395C40.2657 32.6323 37.0905 32.1149 34.342 33.9395C31.8652 35.571 32.0269 39.3617 33.998 39.1582C35.9691 38.9547 37.9162 36.6403 37.9162 36.6403L41.136 33.8395Z" fill="#263238"/>
<path d="M34.6791 42.735C34.9533 43.2537 35.4206 43.6429 35.9794 43.818C36.7259 44.0422 37.1112 43.38 36.9185 42.666C36.7431 42.0245 36.148 41.1346 35.3946 41.2242C35.2303 41.2461 35.074 41.3089 34.9401 41.4068C34.8061 41.5047 34.6987 41.6346 34.6276 41.7848C34.5565 41.9349 34.524 42.1005 34.533 42.2664C34.5419 42.4324 34.5922 42.5935 34.6791 42.735V42.735Z" fill="#FFC3BD"/>
<path d="M43.083 69.2593C43.083 69.2593 47.2661 87.816 44.459 100.899C42.5877 109.66 35.859 127.358 35.859 127.358L30.5821 127.223C30.5821 127.223 35.6905 108.649 36.7465 101.354C38.5525 88.8611 34.0289 68.4867 34.0289 68.4867L43.083 69.2593Z" fill="#CF185E"/>
<path opacity="0.2" d="M38.2602 73.0086L35.632 77.1787C36.4265 82.1231 36.9307 87.11 37.1422 92.1137C40.8401 85.4568 39.072 76.5302 38.2602 73.0086Z" fill="black"/>
<path d="M36.6021 127.634L30.0867 127.465L30.4617 125.461L37.1112 125.774L36.6021 127.634Z" fill="#263238"/>
<path d="M40.3792 69.0627C40.3792 69.0627 37.9265 88.7404 32.6048 99.4846C28.3082 108.163 16.8427 120.525 16.8427 120.525L13.9118 117.496C13.9118 117.496 21.6553 104.072 24.8476 98.3084C32.6805 84.1667 26.2786 73.388 30.7197 68.197L40.3792 69.0627Z" fill="#CF185E"/>
<path d="M17.1385 120.921L13.3545 117.224L14.6101 115.51L18.6246 119.524L17.1385 120.921Z" fill="#263238"/>
<path d="M30.5958 67.4451L29.9422 68.5074C29.8906 68.5868 29.9869 68.6833 30.1279 68.6971L43.0968 69.8216C43.2069 69.8216 43.3032 69.7836 43.3169 69.7147L43.5233 68.6144C43.5405 68.5385 43.4477 68.466 43.3273 68.4557L30.8056 67.3692C30.7671 67.362 30.7273 67.3652 30.6904 67.3785C30.6535 67.3919 30.6208 67.4148 30.5958 67.4451V67.4451Z" fill="#CF185E"/>
<path opacity="0.5" d="M30.5958 67.4451L29.9422 68.5074C29.8906 68.5868 29.9869 68.6833 30.1279 68.6971L43.0968 69.8216C43.2069 69.8216 43.3032 69.7836 43.3169 69.7147L43.5233 68.6144C43.5405 68.5385 43.4477 68.466 43.3273 68.4557L30.8056 67.3692C30.7671 67.362 30.7273 67.3652 30.6904 67.3785C30.6535 67.3919 30.6208 67.4148 30.5958 67.4451V67.4451Z" fill="white"/>
<path d="M32.1576 68.9938L31.8136 68.9662C31.7482 68.9662 31.7001 68.9213 31.707 68.8799L31.989 67.452C31.989 67.4071 32.0578 67.3795 32.1266 67.3864L32.4706 67.414C32.5394 67.414 32.5876 67.4589 32.5773 67.5003L32.2952 68.9282C32.2849 68.9696 32.223 69.0006 32.1576 68.9938Z" fill="#CF185E"/>
<path d="M42.1439 69.8595L41.7999 69.8319C41.7346 69.8319 41.6864 69.7871 41.6933 69.7457L41.9754 68.3177C41.9877 68.293 42.008 68.2731 42.0329 68.2612C42.0578 68.2493 42.086 68.2462 42.113 68.2522L42.4569 68.2798C42.5257 68.2798 42.5739 68.3246 42.5636 68.366L42.2815 69.794C42.2712 69.8423 42.2093 69.8664 42.1439 69.8595Z" fill="#CF185E"/>
<path d="M37.149 69.4283L36.805 69.3973C36.7362 69.3973 36.6881 69.3524 36.6984 69.3111L36.9805 67.8831C36.9805 67.8417 37.0493 67.8107 37.1146 67.8176L37.4586 67.8486C37.524 67.8486 37.5721 67.8934 37.5653 67.9348L37.2832 69.3628C37.2763 69.4042 37.2178 69.4318 37.149 69.4283Z" fill="#CF185E"/>
<path d="M39.8873 39.9791C39.9354 40.2206 40.1006 40.393 40.2588 40.362C40.417 40.3309 40.5065 40.1067 40.4618 39.8653C40.417 39.6239 40.245 39.4514 40.0868 39.4824C39.9285 39.5135 39.8391 39.7342 39.8873 39.9791Z" fill="#263238"/>
<path d="M42.6259 39.4371C42.5783 39.1941 42.6681 38.9718 42.8266 38.9406C42.9851 38.9093 43.1521 39.081 43.1998 39.324C43.2474 39.567 43.1576 39.7893 42.9991 39.8205C42.8406 39.8518 42.6736 39.6801 42.6259 39.4371Z" fill="#263238"/>
<path d="M42.7528 38.9719L43.3032 38.6891C43.3032 38.6891 43.0933 39.203 42.7528 38.9719Z" fill="#263238"/>
<path d="M41.6829 40.0446C42.0051 40.5561 42.3964 41.0204 42.8457 41.4243C42.7414 41.5395 42.613 41.6302 42.4696 41.6898C42.3263 41.7494 42.1716 41.7765 42.0166 41.7692L41.6829 40.0446Z" fill="#ED847E"/>
<path d="M40.8986 42.9075C40.3905 42.9129 39.899 42.7256 39.5226 42.3832C39.5153 42.3777 39.5093 42.3707 39.505 42.3627C39.5007 42.3547 39.4983 42.3458 39.4978 42.3367C39.4973 42.3275 39.4988 42.3184 39.5023 42.31C39.5057 42.3015 39.5109 42.294 39.5176 42.2878C39.5243 42.2816 39.5323 42.2769 39.541 42.2742C39.5496 42.2714 39.5588 42.2706 39.5678 42.2718C39.5768 42.2731 39.5855 42.2762 39.5931 42.2812C39.6008 42.2861 39.6073 42.2927 39.6121 42.3004C39.8436 42.5051 40.1201 42.652 40.419 42.7294C40.7178 42.8067 41.0307 42.8122 41.3321 42.7453C41.3398 42.7439 41.3477 42.7439 41.3553 42.7456C41.363 42.7472 41.3703 42.7504 41.3767 42.7549C41.3831 42.7594 41.3885 42.7651 41.3927 42.7718C41.3968 42.7785 41.3996 42.7859 41.4009 42.7936C41.4029 42.8014 41.4032 42.8095 41.4018 42.8174C41.4004 42.8253 41.3973 42.8328 41.3927 42.8393C41.3881 42.8459 41.3822 42.8514 41.3753 42.8554C41.3684 42.8594 41.3607 42.8619 41.3527 42.8626C41.2034 42.894 41.0512 42.9091 40.8986 42.9075V42.9075Z" fill="#263238"/>
<path d="M38.2464 39.0374C38.2246 39.0371 38.2033 39.0311 38.1845 39.0202C38.1571 39.0037 38.1374 38.977 38.1297 38.946C38.1219 38.9149 38.1268 38.8821 38.1432 38.8546C38.257 38.6608 38.4153 38.4971 38.605 38.3771C38.7947 38.2571 39.0102 38.1843 39.2337 38.1648C39.2495 38.1643 39.2652 38.167 39.28 38.1726C39.2948 38.1783 39.3083 38.1868 39.3198 38.1977C39.3313 38.2086 39.3406 38.2216 39.347 38.2361C39.3535 38.2506 39.357 38.2662 39.3575 38.2821C39.358 38.2979 39.3553 38.3137 39.3497 38.3285C39.344 38.3433 39.3355 38.3569 39.3247 38.3684C39.3138 38.38 39.3008 38.3892 39.2864 38.3957C39.2719 38.4022 39.2563 38.4058 39.2405 38.4062C39.056 38.4266 38.879 38.4907 38.724 38.5933C38.5691 38.6958 38.4408 38.8339 38.3496 38.996C38.337 39.0107 38.321 39.0222 38.303 39.0294C38.2851 39.0366 38.2656 39.0394 38.2464 39.0374V39.0374Z" fill="#263238"/>
<path d="M43.3789 38.0648C43.3596 38.0692 43.3396 38.0692 43.3204 38.0648C43.1606 37.9699 42.9807 37.9143 42.7954 37.9023C42.6101 37.8903 42.4246 37.9223 42.254 37.9958C42.2261 38.0075 42.1948 38.0082 42.1664 37.9978C42.138 37.9874 42.1145 37.9667 42.1006 37.9397C42.0867 37.9128 42.0835 37.8816 42.0915 37.8524C42.0996 37.8231 42.1183 37.798 42.1439 37.7819C42.3499 37.6883 42.5754 37.6461 42.8012 37.6587C43.027 37.6713 43.2464 37.7384 43.4408 37.8544C43.4678 37.8702 43.4876 37.8961 43.4959 37.9263C43.5043 37.9566 43.5006 37.9889 43.4855 38.0165C43.4738 38.0335 43.4577 38.0469 43.4389 38.0555C43.4201 38.064 43.3993 38.0672 43.3789 38.0648Z" fill="#263238"/>
<path d="M29.5982 52.3065C29.3643 52.5342 29.2026 52.7135 29.0203 52.917C28.838 53.1205 28.6763 53.3206 28.5112 53.5241C28.1844 53.9345 27.8713 54.3553 27.5789 54.7865C26.9975 55.6557 26.4823 56.5678 26.0378 57.5148C25.5943 58.4663 25.2363 59.4555 24.968 60.4708C24.8338 60.9778 24.7134 61.5055 24.624 62.0126C24.4533 62.7451 24.5371 63.5141 24.8614 64.1925C25.0501 64.5488 25.3115 64.8614 25.6285 65.11C25.9033 65.3219 26.2053 65.4959 26.5263 65.6273C27.0785 65.8409 27.6572 65.9778 28.2463 66.0343C29.2916 66.135 30.3447 66.1211 31.387 65.9929C33.3824 65.7603 35.3518 65.3411 37.2694 64.7409L36.9529 63.4888C36.0172 63.644 35.054 63.7889 34.1046 63.8889C33.1552 63.989 32.1989 64.0786 31.2597 64.0993C30.35 64.1322 29.4392 64.0814 28.5387 63.9476C28.151 63.8843 27.7737 63.7683 27.4173 63.6027C27.1989 63.5198 27.0187 63.3588 26.9116 63.1508C26.8827 63.0713 26.8688 62.9871 26.8703 62.9025C26.8655 62.8405 26.8655 62.7782 26.8703 62.7162C26.8703 62.6472 26.8944 62.5851 26.9253 62.4575C27.0217 62.0126 27.1489 61.5745 27.2865 61.1399C27.5665 60.2734 27.9115 59.4294 28.3185 58.6151C28.7275 57.796 29.1966 57.0086 29.7221 56.2593C29.9801 55.8799 30.2518 55.5108 30.5339 55.1556C30.6749 54.9762 30.8229 54.8106 30.9673 54.6347C31.1118 54.4588 31.2769 54.2898 31.3905 54.1656L29.5982 52.3065Z" fill="#FFC3BD"/>
<path d="M36.1652 63.6785L38.5732 62.3989L38.6833 65.5963C38.6833 65.5963 36.9633 65.7067 35.9794 64.9064L36.1652 63.6785Z" fill="#FFC3BD"/>
<path d="M40.3895 80.8797L38.4012 59.2152L42.6496 55.9523L55.6184 54.7554L57.8716 79.2654L40.3895 80.8797Z" fill="#CF185E"/>
<path opacity="0.8" d="M40.3895 80.8797L38.4012 59.2152L42.6496 55.9523L55.6184 54.7554L57.8716 79.2654L40.3895 80.8797Z" fill="white"/>
<path d="M38.4012 59.2153L42.6496 55.9523L41.535 59.8568L38.4012 59.2153Z" fill="#CF185E"/>
<path d="M56.3511 83.0527C53.4253 83.0527 51.0535 80.6745 51.0535 77.7409C51.0535 74.8073 53.4253 72.4291 56.3511 72.4291C59.2769 72.4291 61.6487 74.8073 61.6487 77.7409C61.6487 80.6745 59.2769 83.0527 56.3511 83.0527Z" fill="#CF185E"/>
<path d="M53.7337 81.0608C51.9031 79.6107 51.5915 76.9471 53.0378 75.1115C54.4841 73.276 57.1405 72.9636 58.9712 74.4137C60.8019 75.8639 61.1134 78.5274 59.6672 80.363C58.2209 82.1985 55.5644 82.511 53.7337 81.0608Z" fill="white"/>
<path d="M53.7402 77.3684L55.6046 77.1511L55.3879 75.2816L56.7227 75.1229L56.9394 76.9924L58.8038 76.7716L58.9621 78.1134L57.0976 78.3341L57.3178 80.2002L55.9796 80.3588L55.7629 78.4894L53.8984 78.7101L53.7402 77.3684Z" fill="#CF185E"/>
<path opacity="0.4" d="M41.5729 63.7061C41.5902 63.8957 41.6446 64.08 41.7329 64.2485C41.8213 64.4171 41.942 64.5664 42.088 64.6882C42.234 64.8099 42.4025 64.9016 42.5839 64.958C42.7652 65.0144 42.9559 65.0343 43.145 65.0168L52.605 64.1441C52.9865 64.1083 53.3383 63.9222 53.5833 63.6268C53.8284 63.3313 53.9466 62.9505 53.9122 62.5678V62.5678C53.8949 62.3782 53.8405 62.1939 53.7521 62.0254C53.6637 61.8569 53.5431 61.7075 53.3971 61.5857C53.2511 61.464 53.0826 61.3723 52.9012 61.316C52.7198 61.2596 52.5292 61.2396 52.3401 61.2572L42.8801 62.1298C42.691 62.1471 42.5072 62.2016 42.3391 62.2903C42.171 62.3789 42.022 62.4998 41.9006 62.6462C41.7792 62.7926 41.6878 62.9616 41.6316 63.1435C41.5753 63.3253 41.5554 63.5165 41.5729 63.7061Z" fill="#CF185E"/>
<path opacity="0.4" d="M44.7962 67.6209C44.8134 67.8105 44.8678 67.9949 44.9562 68.1634C45.0446 68.3319 45.1652 68.4813 45.3112 68.603C45.4572 68.7248 45.6257 68.8164 45.8071 68.8728C45.9885 68.9292 46.1791 68.9492 46.3682 68.9316L52.9799 68.3211C53.169 68.3038 53.3529 68.2493 53.5209 68.1607C53.689 68.072 53.838 67.9511 53.9594 67.8047C54.0808 67.6583 54.1722 67.4893 54.2285 67.3075C54.2847 67.1256 54.3046 66.9344 54.2871 66.7448V66.7448C54.2698 66.5552 54.2155 66.3709 54.1271 66.2024C54.0387 66.0339 53.9181 65.8845 53.772 65.7627C53.626 65.641 53.4575 65.5493 53.2762 65.493C53.0948 65.4366 52.9041 65.4166 52.715 65.4342L46.1034 66.0481C45.7225 66.084 45.3712 66.2695 45.1263 66.5642C44.8813 66.8589 44.7627 67.2388 44.7962 67.6209V67.6209Z" fill="#CF185E"/>
<path d="M40.0455 62.5886L39.6843 64.9789L38.6867 65.5963L38.5766 62.3989L40.0455 62.5886Z" fill="#FFC3BD"/>
<path d="M30.128 49.492C28.611 49.761 26.485 54.1208 26.485 54.1208L30.3069 57.57C30.3069 57.57 33.3478 54.245 33.1862 52.2652C33.0451 50.5923 32.0544 49.1471 30.128 49.492Z" fill="#263238"/>
<path d="M14.8957 123.822C14.8561 123.821 14.8168 123.816 14.7787 123.805C14.4141 123.681 14.1767 123.008 14.0666 122.618C14.0643 122.607 14.065 122.595 14.0687 122.585C14.0723 122.574 14.0787 122.564 14.0873 122.556C14.0965 122.549 14.108 122.545 14.1199 122.545C14.1319 122.545 14.1434 122.549 14.1526 122.556C14.2627 122.611 15.2328 123.132 15.2637 123.515C15.2683 123.557 15.261 123.599 15.2427 123.637C15.2245 123.675 15.196 123.707 15.1605 123.729C15.0855 123.79 14.992 123.822 14.8957 123.822V123.822ZM14.2077 122.725C14.3762 123.263 14.5929 123.619 14.7993 123.688C14.8461 123.702 14.8958 123.704 14.9435 123.693C14.9912 123.682 15.0352 123.659 15.0711 123.626C15.0896 123.615 15.1047 123.599 15.1144 123.58C15.1242 123.561 15.1283 123.54 15.1262 123.519C15.1262 123.284 14.5585 122.915 14.2249 122.725H14.2077Z" fill="#CF185E"/>
<path d="M15.047 122.877C14.7166 122.876 14.3908 122.799 14.0942 122.653C14.0857 122.647 14.0787 122.64 14.0739 122.631C14.0691 122.622 14.0666 122.611 14.0666 122.601C14.0662 122.591 14.0689 122.58 14.0744 122.571C14.0799 122.562 14.088 122.554 14.0976 122.549C14.1285 122.532 14.8957 122.108 15.3085 122.256C15.3604 122.272 15.4081 122.299 15.4475 122.336C15.487 122.373 15.5171 122.419 15.5355 122.47C15.5613 122.519 15.5699 122.574 15.5599 122.628C15.5499 122.682 15.5219 122.731 15.4805 122.767C15.3523 122.851 15.1997 122.89 15.047 122.877ZM14.2593 122.601C14.5861 122.743 15.2225 122.829 15.4014 122.677C15.4323 122.65 15.4633 122.608 15.422 122.515C15.4097 122.481 15.3897 122.45 15.3634 122.425C15.3371 122.4 15.3054 122.381 15.2706 122.37C14.992 122.27 14.476 122.494 14.2593 122.615V122.601Z" fill="#CF185E"/>
<path d="M35.0369 131.497C34.7042 131.489 34.3734 131.446 34.0496 131.369C34.0382 131.365 34.0284 131.357 34.0215 131.348C34.0146 131.338 34.0109 131.326 34.0109 131.314C34.0109 131.302 34.0146 131.29 34.0215 131.28C34.0284 131.27 34.0382 131.263 34.0496 131.259C34.1975 131.186 35.515 130.569 35.8453 130.803C35.8756 130.823 35.8998 130.851 35.915 130.884C35.9302 130.917 35.9358 130.954 35.9313 130.99C35.9305 131.057 35.9139 131.124 35.8828 131.183C35.8517 131.243 35.8071 131.295 35.7524 131.335C35.5372 131.464 35.2865 131.52 35.0369 131.497V131.497ZM34.256 131.29C34.6447 131.362 35.3671 131.459 35.6664 131.235C35.7047 131.204 35.7362 131.166 35.7588 131.123C35.7813 131.079 35.7944 131.032 35.7971 130.983C35.8001 130.968 35.7984 130.952 35.7923 130.938C35.7861 130.923 35.7758 130.912 35.7627 130.903C35.5804 130.776 34.8029 131.048 34.256 131.29Z" fill="#CF185E"/>
<path d="M34.0633 131.372C34.0498 131.376 34.0355 131.376 34.022 131.372C34.0134 131.365 34.0072 131.355 34.0042 131.344C34.0011 131.333 34.0013 131.321 34.0048 131.31C34.0048 131.255 34.3144 129.955 35.0368 130.038C35.2157 130.062 35.2673 130.148 35.2742 130.22C35.3189 130.565 34.4899 131.217 34.0943 131.383L34.0633 131.372ZM34.9646 130.141C34.5071 130.141 34.2422 130.9 34.1528 131.203C34.5828 130.976 35.1848 130.434 35.1469 130.224C35.1469 130.207 35.1469 130.158 35.0128 130.145L34.9646 130.141Z" fill="#CF185E"/>
<path d="M40.0214 39.51L40.5684 39.2272C40.5684 39.2272 40.3586 39.7411 40.0214 39.51Z" fill="#263238"/>
<defs>
<clipPath id="clip0">
<rect width="15" height="10" fill="white" transform="translate(56)"/>
</clipPath>
<clipPath id="clip1">
<rect width="14" height="12" fill="white" transform="translate(12 12)"/>
</clipPath>
</defs>
</svg>
