<svg width="18" height="18" viewBox="0 0 18 18" fill="none" xmlns="http://www.w3.org/2000/svg">
<path d="M8.25585 8.18756C8.01373 8.18756 7.84938 8.21109 7.76331 8.23469V9.79069C7.86517 9.81416 7.99026 9.82207 8.16209 9.82207C8.79568 9.82207 9.18679 9.50118 9.18679 8.96194C9.18679 8.477 8.85029 8.18756 8.25585 8.18756Z" fill="#D6DF2D"/>
<path d="M15.9616 6.43852H15.5294V4.35303C15.5294 4.34002 15.5273 4.32692 15.5256 4.31375C15.5249 4.23094 15.4986 4.1496 15.4419 4.08516L11.9714 0.120719C11.9703 0.119706 11.9693 0.119346 11.9686 0.118235C11.9479 0.0951305 11.9238 0.0759149 11.8983 0.0592809C11.8908 0.0542156 11.8831 0.0499672 11.8752 0.0455882C11.8531 0.0335293 11.8297 0.0235294 11.8056 0.0163072C11.7991 0.0144771 11.7932 0.0117974 11.7866 0.010098C11.7604 0.00388888 11.7332 0 11.7056 0H3.17647C2.78699 0 2.47058 0.316764 2.47058 0.705914V6.43835H2.03846C1.4813 6.43835 1.02954 6.88992 1.02954 7.44727V12.6938C1.02954 13.2508 1.4813 13.7027 2.03846 13.7027H2.47062V17.2941C2.47062 17.6832 2.78702 18 3.1765 18H14.8235C15.2127 18 15.5294 17.6832 15.5294 17.2941V13.7027H15.9616C16.5186 13.7027 16.9705 13.2508 16.9705 12.6938V7.44744C16.9705 6.89012 16.5186 6.43852 15.9616 6.43852ZM3.17647 0.706044H11.3527V4.31757C11.3527 4.51257 11.5109 4.67051 11.7056 4.67051H14.8235V6.43875H3.17647V0.706044ZM10.3673 8.93044C10.3673 9.44649 10.1953 9.88439 9.88269 10.1818C9.4758 10.5649 8.87368 10.7367 8.17021 10.7367C8.01374 10.7367 7.87276 10.7292 7.76332 10.7135V12.5979H6.58257V7.39806C6.95031 7.33515 7.46629 7.28845 8.19355 7.28845C8.92855 7.28845 9.4525 7.42907 9.80479 7.71074C10.1407 7.97649 10.3673 8.41449 10.3673 8.93044ZM2.84421 12.5589L2.97741 11.5971C3.14173 11.6519 3.35258 11.6912 3.58715 11.6912C4.08797 11.6912 4.40048 11.464 4.40048 10.6431V7.3274H5.58898V10.6586C5.58898 12.1601 4.86937 12.6838 3.71225 12.6838C3.43878 12.684 3.07895 12.6375 2.84421 12.5589ZM14.8235 17.103H3.17647V13.7027H14.8235V17.103H14.8235ZM15.529 12.3557C15.1616 12.4808 14.4657 12.6528 13.7692 12.6528C12.8079 12.6528 12.1116 12.4103 11.627 11.9413C11.1421 11.4878 10.8758 10.7997 10.8839 10.0254C10.8915 8.27371 12.1661 7.2728 13.8946 7.2728C14.575 7.2728 15.0992 7.40551 15.357 7.53077L15.1068 8.48472C14.8173 8.35959 14.4575 8.25793 13.8788 8.25793C12.8858 8.25793 12.1354 8.82113 12.1354 9.96282C12.1354 11.0498 12.8155 11.691 13.7931 11.691C14.0668 11.691 14.2858 11.6596 14.3795 11.6126V10.51H13.5661V9.57956H15.529V12.3557H15.529Z" fill="#D6DF2D"/>
</svg>
