<svg width="25" height="24" viewBox="0 0 25 24" fill="none" xmlns="http://www.w3.org/2000/svg">
<path d="M24.354 5.15925L19.9423 0.65925C19.5254 0.234 18.9717 0 18.3823 0C17.793 0 17.2393 0.234 16.8224 0.65925L5.05771 12.6593C4.64117 13.0841 4.41176 13.6489 4.41176 14.25C4.41176 14.745 4.56985 15.2145 4.85771 15.6026C4.85293 16.0781 4.68639 17.409 3.15661 18.9697L1.68602 20.4697C1.54815 20.6104 1.47058 20.8013 1.47058 21V23.25C1.47058 23.664 1.79999 24 2.20588 24H4.41176C4.60661 24 4.79374 23.9209 4.93161 23.7803L6.4022 22.2803C7.90514 20.7473 9.1908 20.5538 9.70514 20.5466C10.0853 20.8395 10.5448 21 11.0294 21C11.6187 21 12.1724 20.766 12.5893 20.3407L24.354 8.34075C24.7706 7.91588 25 7.35113 25 6.75C25 6.14887 24.7706 5.58413 24.354 5.15925ZM4.10698 22.5H2.94117V21.3105L3.67646 20.5605L4.84227 21.75L4.10698 22.5ZM5.9022 20.7098L4.69632 19.4801C5.4908 18.5321 5.90404 17.6415 6.11507 16.92L8.41065 19.2615C7.70918 19.4764 6.83455 19.8971 5.9022 20.7098ZM23.3143 7.28025L11.5496 19.2803C11.2735 19.5619 10.7937 19.563 10.5151 19.2847C10.4941 19.263 10.475 19.2397 10.4515 19.221L6.09742 14.7803C5.95882 14.6385 5.88235 14.4502 5.88235 14.25C5.88235 14.0498 5.95882 13.8615 6.09742 13.7197L17.8621 1.71975C18.0011 1.578 18.186 1.5 18.3823 1.5C18.5787 1.5 18.7636 1.578 18.9026 1.71975L23.3143 6.21975C23.4529 6.3615 23.5294 6.54975 23.5294 6.75C23.5294 6.95025 23.4529 7.1385 23.3143 7.28025Z" fill="#585E61"/>
<path d="M18.1669 4.71978C17.8801 4.4269 17.414 4.4269 17.1272 4.71978L9.03896 12.9698C8.75183 13.2627 8.75183 13.7374 9.03896 14.0303L11.2448 16.2803C11.3882 16.4269 11.5765 16.5 11.7647 16.5C11.9529 16.5 12.1412 16.4269 12.2845 16.2803L20.3728 8.03028C20.6599 7.7374 20.6599 7.26265 20.3728 6.96978L18.1669 4.71978ZM11.7647 14.6895L10.5989 13.5L17.647 6.31053L18.8129 7.50003L11.7647 14.6895Z" fill="#585E61"/>
</svg>
