<svg width="92" height="42" viewBox="0 0 92 42" fill="none" xmlns="http://www.w3.org/2000/svg">
<path d="M61.6312 10.8248L51.4406 0.235781C51.2956 0.0851562 51.0954 0 50.8863 0H35.6981C33.9983 0 32.6154 1.38234 32.6154 3.08141V13.8462H26.4602C25.1884 13.8462 24.1538 14.8805 24.1538 16.1519V27.6944C24.1538 28.9657 25.1884 30 26.4602 30H32.6154V36.924C32.6154 38.6201 33.9983 40 35.6981 40H58.7635C60.4633 40 61.8462 38.6209 61.8462 36.9257V11.3582C61.8462 11.1593 61.7691 10.9681 61.6312 10.8248ZM51.077 2.07664L59.4425 10.7692H51.077V2.07664ZM26.4602 28.4616C26.0367 28.4616 25.6923 28.1174 25.6923 27.6944V16.1519C25.6923 15.7288 26.0368 15.3846 26.4602 15.3846H47.2322C47.6556 15.3846 48 15.7288 48 16.1519V27.6944C48 28.1174 47.6556 28.4616 47.2322 28.4616H26.4602ZM60.3077 36.9257C60.3077 37.7726 59.6149 38.4616 58.7635 38.4616H35.6981C34.8466 38.4616 34.1538 37.7719 34.1538 36.9241V30H47.2322C48.5039 30 49.5385 28.9657 49.5385 27.6944V16.1519C49.5385 14.8805 48.5039 13.8462 47.2322 13.8462H34.1538V3.08141C34.1538 2.23055 34.8466 1.53844 35.6981 1.53844H49.5384V11.5384C49.5384 11.9633 49.8829 12.3077 50.3077 12.3077H60.3077V36.9257Z" fill="#CF185E"/>
<path d="M33.3501 19.523C33.0947 19.1909 32.7776 18.9753 32.3991 18.8762C32.1526 18.8101 31.6238 18.777 30.8125 18.777H28.6716V25.3846H30.0057V22.8921H30.8756C31.4796 22.8921 31.9408 22.8605 32.2594 22.7974C32.4937 22.7463 32.7244 22.642 32.9512 22.4841C33.1781 22.3264 33.3651 22.1093 33.5124 21.8329C33.6597 21.5565 33.7333 21.2154 33.7333 20.8098C33.7332 20.2839 33.6055 19.855 33.3501 19.523ZM32.2075 21.3416C32.1069 21.4889 31.9679 21.597 31.7905 21.6662C31.6132 21.7353 31.2617 21.7698 30.7358 21.7698H30.0057V19.8949H30.6502C31.131 19.8949 31.451 19.9098 31.6102 19.9399C31.8266 19.979 32.0054 20.0766 32.1466 20.2329C32.2878 20.3891 32.3584 20.5875 32.3584 20.8278C32.3585 21.0231 32.3081 21.1944 32.2075 21.3416Z" fill="#CF185E"/>
<path d="M40.147 20.5822C40.0027 20.16 39.7923 19.8032 39.5159 19.5117C39.2395 19.2202 38.9074 19.0174 38.5198 18.9032C38.2314 18.8191 37.8122 18.777 37.2623 18.777H34.8239V25.3846H37.3345C37.8273 25.3846 38.2209 25.338 38.5153 25.2448C38.909 25.1187 39.2215 24.9429 39.4528 24.7175C39.7593 24.42 39.9952 24.0309 40.1605 23.5502C40.2957 23.1565 40.3633 22.6877 40.3633 22.1439C40.3633 21.5249 40.2912 21.0044 40.147 20.5822ZM38.8488 23.2955C38.7587 23.5916 38.6423 23.8041 38.4995 23.9333C38.3568 24.0625 38.1773 24.1541 37.9609 24.2082C37.7957 24.2503 37.5267 24.2713 37.1541 24.2713H36.158V19.8949H36.7575C37.3013 19.8949 37.6665 19.9159 37.8527 19.958C38.1021 20.012 38.308 20.1157 38.4702 20.269C38.6325 20.4223 38.7587 20.6356 38.8488 20.909C38.939 21.1824 38.9841 21.5745 38.9841 22.0854C38.9841 22.5962 38.939 22.9995 38.8488 23.2955Z" fill="#CF185E"/>
<path d="M46.0334 19.8949V18.777H41.5036V25.3846H42.8377V22.5766H45.5962V21.4588H42.8377V19.8949H46.0334Z" fill="#CF185E"/>
<circle cx="75" cy="33" r="2.39" stroke="#CF185E" stroke-width="1.22"/>
<circle cx="16" cy="3" r="2.39" stroke="#CF185E" stroke-width="1.22"/>
<path d="M69.4497 3.42954C69.1791 3.15896 69.1791 2.72025 69.4497 2.44967C69.7203 2.17908 70.159 2.17908 70.4296 2.44967L74.3491 6.36917C74.6196 6.63975 74.6196 7.07846 74.3491 7.34904C74.0785 7.61963 73.6398 7.61963 73.3692 7.34904L69.4497 3.42954Z" fill="#CF185E"/>
<path d="M70.4296 7.34904C70.159 7.61963 69.7203 7.61963 69.4497 7.34904C69.1791 7.07846 69.1791 6.63975 69.4497 6.36917L73.3692 2.44967C73.6398 2.17908 74.0785 2.17908 74.3491 2.44967C74.6196 2.72025 74.6196 3.15896 74.3491 3.42954L70.4296 7.34904Z" fill="#CF185E"/>
<path d="M9.95919 34.1429C9.63233 33.816 9.63233 33.2861 9.95919 32.9592C10.2861 32.6323 10.816 32.6323 11.1429 32.9592L15.8776 37.6939C16.2044 38.0208 16.2044 38.5507 15.8776 38.8776C15.5507 39.2045 15.0208 39.2045 14.6939 38.8776L9.95919 34.1429Z" fill="#CF185E"/>
<path d="M11.1429 38.8776C10.816 39.2045 10.2861 39.2045 9.95919 38.8776C9.63233 38.5507 9.63233 38.0208 9.95919 37.6939L14.6939 32.9592C15.0208 32.6323 15.5507 32.6323 15.8776 32.9592C16.2044 33.2861 16.2044 33.816 15.8776 34.1429L11.1429 38.8776Z" fill="#CF185E"/>
<path d="M7.58333 23.0833C5.006 23.0833 2.91667 20.994 2.91667 18.4167C2.91667 15.8393 5.006 13.75 7.58333 13.75C10.1607 13.75 12.25 15.8393 12.25 18.4167C12.25 20.994 10.1607 23.0833 7.58333 23.0833Z" stroke="#CF185E" stroke-width="1.2" stroke-linecap="round" stroke-linejoin="round"/>
<path d="M1.75 24.25L4.2875 21.7125" stroke="#CF185E" stroke-width="1.2" stroke-linecap="round" stroke-linejoin="round"/>
<g clip-path="url(#clip0)">
<path d="M87.3333 22.3333L85 20L82.6667 22.3333" stroke="#CF185E" stroke-width="1.2" stroke-linecap="round" stroke-linejoin="round"/>
<path d="M85 20V25.25" stroke="#CF185E" stroke-width="1.2" stroke-linecap="round" stroke-linejoin="round"/>
<path d="M89.8942 23.7275C90.4631 23.4174 90.9126 22.9265 91.1716 22.3326C91.4306 21.7386 91.4845 21.0752 91.3246 20.4473C91.1648 19.8193 90.8004 19.2624 90.2889 18.8645C89.7774 18.4667 89.148 18.2505 88.5 18.25H87.765C87.5884 17.5671 87.2593 16.9331 86.8025 16.3956C86.3456 15.8582 85.7728 15.4313 85.1272 15.1471C84.4816 14.8628 83.78 14.7287 83.0751 14.7546C82.3701 14.7806 81.6803 14.966 81.0574 15.297C80.4344 15.628 79.8946 16.0958 79.4785 16.6655C79.0624 17.2351 78.7809 17.8916 78.6551 18.5857C78.5292 19.2798 78.5624 19.9933 78.752 20.6728C78.9417 21.3522 79.2829 21.9798 79.75 22.5084" stroke="#CF185E" stroke-width="1.2" stroke-linecap="round" stroke-linejoin="round"/>
<path d="M87.3333 22.3333L85 20L82.6667 22.3333" stroke="#CF185E" stroke-width="1.2" stroke-linecap="round" stroke-linejoin="round"/>
</g>
<defs>
<clipPath id="clip0">
<rect width="14" height="14" fill="white" transform="translate(78 13)"/>
</clipPath>
</defs>
</svg>
