<svg width="18" height="18" viewBox="0 0 18 18" fill="none" xmlns="http://www.w3.org/2000/svg">
<path d="M9.1771 8.24561C8.93481 8.24561 8.77056 8.26887 8.68439 8.29221V9.84858C8.78625 9.87201 8.91135 9.87992 9.08328 9.87992C9.71687 9.87992 10.1077 9.55923 10.1077 9.01966C10.1077 8.53485 9.77151 8.24561 9.1771 8.24561Z" fill="#D04423"/>
<path d="M5.56354 9.01966C5.56354 8.53485 5.22759 8.24561 4.63321 8.24561C4.39099 8.24561 4.22668 8.26887 4.1405 8.29221V9.84858C4.24233 9.87201 4.36763 9.87992 4.53936 9.87992C5.17289 9.87992 5.56354 9.55923 5.56354 9.01966Z" fill="#D04423"/>
<path d="M15.9616 6.43852H15.5294V4.35303C15.5294 4.34002 15.5273 4.32692 15.5256 4.31375C15.5249 4.23094 15.4986 4.1496 15.4419 4.08516L11.9714 0.120719C11.9703 0.119706 11.9693 0.119346 11.9686 0.118235C11.9479 0.0951305 11.9238 0.0759149 11.8983 0.0592809C11.8908 0.0542156 11.8831 0.0499672 11.8752 0.0455882C11.8531 0.0335293 11.8297 0.0235294 11.8056 0.0163072C11.7991 0.0144771 11.7932 0.0117974 11.7866 0.010098C11.7604 0.00388888 11.7332 0 11.7056 0H3.17647C2.78699 0 2.47058 0.316764 2.47058 0.705914V6.43835H2.03846C1.4813 6.43835 1.02954 6.88992 1.02954 7.44727V12.6938C1.02954 13.2508 1.4813 13.7027 2.03846 13.7027H2.47062V17.2941C2.47062 17.6832 2.78702 18 3.1765 18H14.8235C15.2127 18 15.5294 17.6832 15.5294 17.2941V13.7027H15.9616C16.5186 13.7027 16.9705 13.2508 16.9705 12.6938V7.44744C16.9705 6.89012 16.5186 6.43852 15.9616 6.43852ZM3.17647 0.706044H11.3527V4.31757C11.3527 4.51257 11.5109 4.67051 11.7056 4.67051H14.8235V6.43875H3.17647V0.706044ZM11.2886 8.98835C11.2886 9.50456 11.1166 9.9423 10.804 10.2394C10.3969 10.6224 9.79482 10.7947 9.0909 10.7947C8.93469 10.7947 8.79391 10.7866 8.68446 10.7712V12.6559H7.50355V7.45554C7.87113 7.39309 8.38754 7.34593 9.11472 7.34593C9.84962 7.34593 10.3737 7.48682 10.7254 7.76842C11.0618 8.03443 11.2886 8.47221 11.2886 8.98835ZM2.95957 12.6559V7.45554C3.32718 7.39309 3.84356 7.34593 4.57074 7.34593C5.30574 7.34593 5.82973 7.48682 6.18146 7.76842C6.51793 8.03443 6.74456 8.47224 6.74456 8.98838C6.74456 9.50459 6.57267 9.94233 6.25996 10.2395C5.85296 10.6226 5.25084 10.7947 4.54695 10.7947C4.39071 10.7947 4.24993 10.7866 4.14032 10.7713V12.6559H2.95957V12.6559ZM14.8235 17.103H3.17647V13.7027H14.8235V17.103H14.8235ZM15.6996 8.38623H14.2607V12.6559H13.0644V8.38623H11.6488V7.38531H15.6996V8.38623Z" fill="#D04423"/>
</svg>
