<svg width="18" height="18" viewBox="0 0 18 18" fill="none" xmlns="http://www.w3.org/2000/svg">
<path d="M15.9618 6.43852H15.5296V4.35303C15.5296 4.34002 15.5275 4.32692 15.526 4.31365C15.5253 4.23094 15.4987 4.14957 15.442 4.08516L11.9714 0.120719C11.9703 0.119706 11.9693 0.119346 11.9686 0.118235C11.9479 0.0951305 11.9238 0.0759149 11.8983 0.0592809C11.8908 0.0542156 11.8831 0.0499672 11.8752 0.0454901C11.8531 0.0335293 11.8297 0.0234313 11.8056 0.0162091C11.7991 0.0144771 11.7932 0.0117974 11.7866 0.0100653C11.7604 0.00388888 11.7332 0 11.7056 0H3.17647C2.78699 0 2.47058 0.316764 2.47058 0.705914V6.43835H2.03846C1.4813 6.43835 1.02954 6.88992 1.02954 7.44727V12.6938C1.02954 13.2506 1.4813 13.7027 2.03846 13.7027H2.47062V17.2941C2.47062 17.6832 2.78702 18 3.1765 18H14.8235C15.2127 18 15.5294 17.6832 15.5294 17.2941V13.7027H15.9616C16.5186 13.7027 16.9705 13.2508 16.9705 12.6938V7.44744C16.9705 6.88992 16.5189 6.43852 15.9618 6.43852ZM3.17647 0.705914H11.3527V4.31734C11.3527 4.51234 11.5109 4.67029 11.7056 4.67029H14.8235V6.43852H3.17647V0.705914ZM11.0968 11.5798V12.6035H7.72904V7.21254H8.95322V11.5798H11.0968ZM2.42647 12.6033L3.98627 9.87596L2.48238 7.21254H3.88215L4.35401 8.19616C4.51411 8.52394 4.63414 8.78819 4.76218 9.09204H4.77797C4.90627 8.74796 5.01002 8.50799 5.14591 8.19616L5.60192 7.21254H6.99368L5.47378 9.84407L7.07381 12.6035H5.66594L5.17806 11.6277C4.97823 11.2517 4.85009 10.9718 4.69819 10.6599H4.68218C4.57006 10.972 4.43437 11.252 4.26643 11.6277L3.81836 12.6035H2.42647V12.6033ZM14.8235 17.103H3.17647V13.7027H14.8235V17.103H14.8235ZM13.136 12.6838C12.5204 12.6838 11.9123 12.5235 11.6086 12.3557L11.8563 11.3479C12.1844 11.5157 12.6883 11.6839 13.2084 11.6839C13.7685 11.6839 14.0642 11.4519 14.0642 11.1C14.0642 10.764 13.8083 10.572 13.1603 10.34C12.2646 10.028 11.6805 9.53214 11.6805 8.74796C11.6805 7.82802 12.4484 7.1243 13.7206 7.1243C14.3283 7.1243 14.7763 7.25263 15.0962 7.39626L14.8243 8.38021C14.6083 8.2761 14.2242 8.1242 13.6965 8.1242C13.1687 8.1242 12.9128 8.364 12.9128 8.64423C12.9128 8.98819 13.2164 9.14031 13.9125 9.4043C14.8643 9.75622 15.3123 10.2519 15.3123 11.0118C15.3119 11.9159 14.6162 12.6838 13.136 12.6838Z" fill="#5EA162"/>
</svg>
